# This file uses centimeters as units for non-parametric coordinates.

mtllib model_PropStarfish.mtl
g default
v 0.100057 -0.077500 -0.307944
v -0.261953 -0.077500 -0.190320
v -0.261953 -0.077500 0.190320
v 0.100057 -0.077500 0.307944
v 0.323791 -0.077500 0.000000
v 0.100057 0.077500 -0.307944
v -0.261953 0.077500 -0.190320
v -0.261953 0.077500 0.190320
v 0.100057 0.077500 0.307944
v 0.323791 0.077500 0.000000
v 0.000000 0.155000 0.000000
v 0.100057 -0.077500 -0.307944
v -0.261953 -0.077500 -0.190320
v -0.261953 0.077500 -0.190320
v 0.100057 0.077500 -0.307944
v -0.261953 -0.077500 0.190320
v -0.261953 0.077500 0.190320
v 0.100057 -0.077500 0.307944
v 0.100057 0.077500 0.307944
v 0.323791 -0.077500 -0.000000
v 0.323791 0.077500 -0.000000
v 0.919436 -0.076312 -0.549946
v 0.807152 -0.076312 -0.704493
v 0.774075 -0.041391 -0.679498
v 0.882287 -0.041391 -0.530557
v -0.253722 -0.073941 -1.053482
v -0.413956 -0.073941 -1.001419
v -0.402744 -0.041572 -0.965654
v -0.248322 -0.041572 -1.015829
v -1.162877 -0.077355 -0.094315
v -1.162877 -0.077355 0.094315
v -1.124503 -0.049035 0.090338
v -1.124503 -0.049035 -0.091450
v -0.451454 -0.077767 0.963120
v -0.267761 -0.077767 1.022805
v -0.261852 -0.059391 0.985153
v -0.438883 -0.059391 0.927632
v 0.849801 -0.077074 0.726151
v 0.953214 -0.077074 0.583816
v 0.914839 -0.047104 0.562085
v 0.815178 -0.047104 0.699258
v 0.474929 -0.077287 0.517047
v 0.453902 -0.004986 0.497738
v 0.611542 -0.004986 0.280765
v 0.638503 -0.077287 0.291908
v -0.356704 -0.077634 0.576720
v -0.347568 -0.011129 0.555246
v -0.084613 -0.011129 0.640686
v -0.083852 -0.077634 0.665375
v -0.712415 -0.077427 -0.142317
v -0.690379 -0.005951 -0.137712
v -0.690379 -0.005951 0.136599
v -0.712415 -0.077427 0.142317
v -0.076832 -0.075720 -0.680713
v -0.077848 -0.002220 -0.656580
v -0.329499 -0.002220 -0.574814
v -0.337954 -0.075720 -0.595869
v 0.621614 -0.076906 -0.274973
v 0.595266 -0.002129 -0.265557
v 0.433351 -0.002129 -0.488415
v 0.453604 -0.076906 -0.506219
v 0.863294 -0.076312 -0.627220
v 0.863294 -0.003979 -0.627220
v 0.537609 0.036761 -0.390596
v 0.211924 0.077500 -0.153972
v 0.211924 0.077500 -0.153972
v -0.333839 -0.073941 -1.027450
v -0.333839 -0.004167 -1.027450
v -0.207393 0.036667 -0.638291
v -0.080948 0.077500 -0.249132
v -0.080948 0.077500 -0.249132
v 0.901507 -0.077074 0.654984
v 0.901507 -0.009908 0.654984
v 0.556716 0.033796 0.404478
v 0.211924 0.077500 0.153972
v 0.211924 0.077500 0.153972
v -0.359608 -0.077767 0.992962
v -0.359608 -0.022656 0.992962
v -0.220278 0.027422 0.621047
v -0.080948 0.077500 0.249132
v -0.080948 0.077500 0.249132
v -1.162877 -0.077355 -0.000000
v -1.162877 -0.011911 -0.000000
v -0.712415 0.032795 -0.000000
v -0.261953 0.077500 -0.000000
v -0.261953 0.077500 -0.000000
vt 0.000000 0.333333
vt 0.200000 0.333333
vt 0.400000 0.333333
vt 0.600000 0.333333
vt 0.800000 0.333333
vt 1.000000 0.333333
vt 0.000000 0.666667
vt 0.200000 0.666667
vt 0.400000 0.666667
vt 0.600000 0.666667
vt 0.800000 0.666667
vt 1.000000 0.666667
vt 0.100000 1.000000
vt 0.300000 1.000000
vt 0.500000 1.000000
vt 0.700000 1.000000
vt 0.900000 1.000000
vt 0.000000 0.333333
vt 0.200000 0.333333
vt 0.200000 0.666667
vt 0.000000 0.666667
vt 0.400000 0.333333
vt 0.400000 0.666667
vt 0.600000 0.333333
vt 0.600000 0.666667
vt 0.800000 0.333333
vt 0.800000 0.666667
vt 1.000000 0.333333
vt 1.000000 0.666667
vt 0.800000 0.333333
vt 1.000000 0.333333
vt 1.000000 0.666667
vt 0.800000 0.666667
vt 0.000000 0.333333
vt 0.200000 0.333333
vt 0.200000 0.666667
vt 0.000000 0.666667
vt 0.200000 0.333333
vt 0.400000 0.333333
vt 0.400000 0.666667
vt 0.200000 0.666667
vt 0.400000 0.333333
vt 0.600000 0.333333
vt 0.600000 0.666667
vt 0.400000 0.666667
vt 0.600000 0.333333
vt 0.800000 0.333333
vt 0.800000 0.666667
vt 0.600000 0.666667
vt 0.600000 0.333333
vt 0.600000 0.666667
vt 0.800000 0.666667
vt 0.800000 0.333333
vt 0.400000 0.333333
vt 0.400000 0.666667
vt 0.600000 0.666667
vt 0.600000 0.333333
vt 0.200000 0.333333
vt 0.200000 0.666667
vt 0.400000 0.666667
vt 0.400000 0.333333
vt 0.000000 0.333333
vt 0.000000 0.666667
vt 0.200000 0.666667
vt 0.200000 0.333333
vt 0.800000 0.333333
vt 0.800000 0.666667
vt 1.000000 0.666667
vt 1.000000 0.333333
vt 0.900000 0.333333
vt 0.900000 0.666667
vt 0.900000 0.666667
vt 0.900000 0.666667
vt 0.900000 0.666667
vt 0.100000 0.333333
vt 0.100000 0.666667
vt 0.100000 0.666667
vt 0.100000 0.666667
vt 0.100000 0.666667
vt 0.700000 0.333333
vt 0.700000 0.666667
vt 0.700000 0.666667
vt 0.700000 0.666667
vt 0.700000 0.666667
vt 0.500000 0.333333
vt 0.500000 0.666667
vt 0.500000 0.666667
vt 0.500000 0.666667
vt 0.500000 0.666667
vt 0.300000 0.333333
vt 0.300000 0.666667
vt 0.300000 0.666667
vt 0.300000 0.666667
vt 0.300000 0.666667
vn -0.003482 0.346036 -0.938215
vn -0.289223 0.352144 -0.890137
vn -0.292174 0.352049 -0.889211
vn -0.003482 0.346036 -0.938215
vn -0.891221 0.372644 -0.258575
vn -0.922017 0.387149 -0.000000
vn -0.922018 0.387147 -0.000380
vn -0.891221 0.372644 -0.258575
vn -0.506457 0.443682 0.739357
vn -0.273439 0.465844 0.841558
vn -0.274998 0.465799 0.841075
vn -0.506457 0.443682 0.739357
vn 0.524121 0.395620 0.754176
vn 0.734228 0.419933 0.533448
vn 0.733352 0.419909 0.534669
vn 0.524121 0.395620 0.754176
vn 0.882050 0.360380 -0.303504
vn 0.752144 0.368317 -0.546463
vn 0.751090 0.368276 -0.547938
vn 0.882050 0.360380 -0.303504
vn -0.087668 0.958914 -0.269814
vn -0.087668 0.958914 -0.269814
vn -0.087668 0.958913 -0.269814
vn -0.087668 0.958913 -0.269814
vn -0.283699 0.958913 0.000000
vn -0.283699 0.958914 0.000000
vn -0.283699 0.958914 0.000000
vn -0.283699 0.958913 0.000000
vn -0.087668 0.958914 0.269814
vn -0.087668 0.958914 0.269814
vn -0.087668 0.958914 0.269814
vn -0.087668 0.958913 0.269814
vn 0.229517 0.958914 0.166754
vn 0.229517 0.958914 0.166754
vn 0.229517 0.958913 0.166754
vn 0.229517 0.958913 0.166754
vn 0.229517 0.958914 -0.166754
vn 0.229517 0.958914 -0.166754
vn 0.229517 0.958913 -0.166754
vn 0.229517 0.958913 -0.166754
vn 0.172130 -0.914619 0.365847
vn 0.172130 -0.914618 0.365847
vn 0.172130 -0.914619 0.365847
vn 0.172130 -0.914619 0.365847
vn 0.111710 0.805584 0.581856
vn 0.149273 0.782168 0.604922
vn 0.149273 0.782168 0.604922
vn 0.132908 0.792638 0.595030
vn 0.105970 0.994369 0.000000
vn 0.105970 0.994369 0.000000
vn 0.105970 0.994369 0.000000
vn 0.105970 0.994369 0.000000
vn 0.221159 -0.975238 -0.000000
vn 0.154570 -0.987982 0.000000
vn 0.154570 -0.987982 0.000000
vn 0.182783 -0.983153 0.000000
vn 0.086831 0.958049 -0.273135
vn 0.086831 0.958049 -0.273134
vn 0.086831 0.958049 -0.273134
vn 0.086831 0.958049 -0.273134
vn 0.103654 -0.881232 -0.461179
vn 0.103654 -0.881232 -0.461179
vn 0.103654 -0.881232 -0.461179
vn 0.103654 -0.881232 -0.461179
vn -0.294306 0.955711 0.000000
vn -0.294306 0.955711 0.000000
vn -0.294306 0.955711 0.000000
vn -0.294306 0.955711 0.000000
vn -0.678579 0.000000 -0.734527
vn -0.678579 0.000000 -0.734527
vn -0.678579 0.000000 -0.734527
vn -0.678579 0.000000 -0.734527
vn -0.277469 0.901037 0.333382
vn -0.277469 0.901037 0.333382
vn -0.277469 0.901037 0.333382
vn -0.277469 0.901037 0.333382
vn -0.216829 -0.938826 0.267566
vn -0.216829 -0.938826 0.267566
vn -0.216829 -0.938826 0.267566
vn -0.216829 -0.938826 0.267566
vn -0.480465 0.025573 -0.876641
vn -0.480465 0.025573 -0.876641
vn -0.481022 0.041801 -0.875711
vn -0.481483 0.059394 -0.874441
vn 0.130597 0.986885 -0.094884
vn 0.206424 0.978401 0.010952
vn 0.239275 0.967528 0.081465
vn 0.115844 0.989709 -0.084002
vn 0.691317 0.049729 0.720838
vn 0.691317 0.049729 0.720838
vn 0.684906 0.114576 0.719566
vn 0.688537 0.081590 0.720597
vn -0.984039 0.020120 0.176811
vn -0.984039 0.020120 0.176811
vn -0.983548 0.033794 0.177459
vn -0.982930 0.046422 0.178028
vn -0.049152 0.987269 -0.151275
vn 0.075152 0.978724 -0.190921
vn 0.157034 0.966344 -0.203762
vn -0.044242 0.989629 -0.136664
vn 0.893988 0.050990 -0.445181
vn 0.893988 0.050990 -0.445181
vn 0.890607 0.116428 -0.439618
vn 0.892657 0.086097 -0.442438
vn -0.118319 0.036566 0.992302
vn -0.118319 0.036566 0.992302
vn -0.117269 0.062368 0.991140
vn -0.116235 0.086039 0.989488
vn -0.151818 0.988409 -0.000000
vn -0.150519 0.980554 -0.125930
vn -0.137059 0.969635 -0.202539
vn -0.136452 0.990647 0.000022
vn -0.116628 0.031534 -0.992675
vn -0.116628 0.031534 -0.992675
vn -0.114872 0.074322 -0.990596
vn -0.115744 0.053746 -0.991824
vn 0.877693 0.056062 0.475933
vn 0.877693 0.056062 0.475933
vn 0.875309 0.095960 0.473947
vn 0.871015 0.140128 0.470848
vn -0.053997 0.982581 0.177815
vn -0.174734 0.975946 0.130374
vn -0.241671 0.966375 0.087836
vn -0.049846 0.985823 0.160215
vn -0.972693 0.017680 -0.231420
vn -0.972693 0.017680 -0.231420
vn -0.971760 0.045053 -0.231633
vn -0.972366 0.029922 -0.231537
vn 0.691551 0.046686 -0.720817
vn 0.691551 0.046686 -0.720817
vn 0.689369 0.076603 -0.720348
vn 0.685975 0.112020 -0.718950
vn 0.129580 0.987089 0.094146
vn 0.051720 0.978747 0.198441
vn -0.004142 0.967565 0.252587
vn 0.116498 0.989588 0.084516
vn -0.477295 0.030450 0.878215
vn -0.477295 0.030450 0.878215
vn -0.477803 0.073505 0.875386
vn -0.477634 0.049825 0.877145
vn -0.477038 0.132900 0.868777
vn -0.477038 0.132900 0.868777
vn -0.114528 0.927806 0.355048
vn 0.099516 0.992222 0.074776
vn 0.673401 0.201561 -0.711270
vn 0.673401 0.201561 -0.711270
vn -0.968430 0.092244 -0.231590
vn -0.968430 0.092244 -0.231590
vn -0.350787 0.936335 0.015010
vn -0.057555 0.989321 0.133908
vn 0.844957 0.282358 0.454226
vn 0.844957 0.282358 0.454226
vn -0.111689 0.141237 -0.983655
vn -0.111689 0.141237 -0.983655
vn -0.110441 0.934465 -0.338493
vn -0.117462 0.993077 -0.000461
vn -0.112387 0.163253 0.980162
vn -0.112387 0.163253 0.980162
vn 0.878374 0.213261 -0.427760
vn 0.878374 0.213261 -0.427760
vn 0.319511 0.920391 -0.225373
vn -0.041601 0.992302 -0.116646
vn -0.980001 0.085651 0.179615
vn -0.980001 0.085651 0.179615
vn 0.671603 0.201518 0.712980
vn 0.671603 0.201518 0.712980
vn 0.298695 0.929442 0.216608
vn 0.096958 0.992579 -0.073390
vn -0.481980 0.105057 -0.869861
vn -0.481980 0.105057 -0.869861
vn 0.571722 0.349321 -0.742367
vn 0.571722 0.349321 -0.742367
vn -0.001802 0.968691 -0.248265
vn -0.105491 0.934777 -0.339211
vn 0.053848 0.978842 -0.197405
vn -0.381844 -0.826653 0.413327
vn -0.381844 -0.826653 0.413327
vn -0.381844 -0.826654 0.413327
vn -0.381844 -0.826653 0.413327
vn -0.539401 0.330398 -0.774522
vn -0.539401 0.330398 -0.774522
vn -0.240264 0.967961 -0.072976
vn -0.371163 0.928568 -0.000436
vn -0.169999 0.979289 -0.109968
vn 0.102675 0.810892 0.576118
vn 0.102675 0.810892 0.576118
vn 0.877989 0.404217 0.256404
vn 0.877989 0.404217 0.256404
vn 0.241467 0.966758 -0.084098
vn 0.308544 0.923745 -0.226928
vn 0.206072 0.978451 -0.012948
vn -0.383143 -0.829465 -0.406436
vn -0.383143 -0.829465 -0.406436
vn -0.383143 -0.829465 -0.406436
vn -0.383143 -0.829465 -0.406436
vn -0.014834 0.456891 0.889399
vn -0.014834 0.456891 0.889399
vn 0.139021 0.962479 0.233041
vn 0.285338 0.924434 0.252991
vn 0.063756 0.973214 0.220885
vn 0.316546 -0.308363 -0.897057
vn 0.316546 -0.308363 -0.897057
vn 0.316546 -0.308363 -0.897057
vn 0.316546 -0.308363 -0.897057
vn -0.889663 0.375149 0.260313
vn -0.889663 0.375149 0.260313
vn -0.137276 0.969398 0.203524
vn -0.110489 0.933379 0.341461
vn -0.150692 0.980472 0.126361
vn 0.287185 -0.957875 -0.000000
vn 0.287184 -0.957875 -0.000000
g starfish
usemtl initialShadingGroup
f 26/34/1 67/75/2 68/76/3 29/37/4
f 30/38/5 82/90/6 83/91/7 33/41/8
f 34/42/9 77/85/10 78/86/11 37/45/12
f 38/46/13 72/80/14 73/81/15 41/49/16
f 22/30/17 62/70/18 63/71/19 25/33/20
f 6/7/21 71/79/22 7/8/23 11/13/24
f 7/8/25 86/94/26 8/9/27 11/14/28
f 8/9/29 81/89/30 9/10/31 11/15/32
f 9/10/33 76/84/34 10/11/35 11/16/36
f 10/11/37 66/74/38 6/12/39 11/17/40
f 1/1/41 2/2/42 13/19/43 12/18/44
f 71/79/45 6/7/46 15/21/47 70/78/48
f 2/2/49 3/3/50 16/22/51 13/19/52
f 86/94/53 7/8/54 14/20/55 85/93/56
f 3/3/57 4/4/58 18/24/59 16/22/60
f 81/89/61 8/9/62 17/23/63 80/88/64
f 4/4/65 5/5/66 20/26/67 18/24/68
f 76/84/69 9/10/70 19/25/71 75/83/72
f 5/5/73 1/6/74 12/28/75 20/26/76
f 66/74/77 10/11/78 21/27/79 65/73/80
f 12/28/81 15/29/82 60/68/83 61/69/84
f 65/73/85 21/27/86 59/67/87 64/72/88
f 21/27/89 20/26/90 58/66/91 59/67/92
f 13/19/93 14/20/94 56/64/95 57/65/96
f 70/78/97 15/21/98 55/63/99 69/77/100
f 15/21/101 12/18/102 54/62/103 55/63/104
f 16/22/105 17/23/106 52/60/107 53/61/108
f 85/93/109 14/20/110 51/59/111 84/92/112
f 14/20/113 13/19/114 50/58/115 51/59/116
f 18/24/117 19/25/118 48/56/119 49/57/120
f 80/88/121 17/23/122 47/55/123 79/87/124
f 17/23/125 16/22/126 46/54/127 47/55/128
f 20/26/129 21/27/130 44/52/131 45/53/132
f 75/83/133 19/25/134 43/51/135 74/82/136
f 19/25/137 18/24/138 42/50/139 43/51/140
f 43/51/140 42/50/139 38/46/141 41/49/142
f 74/82/136 43/51/135 41/49/143 73/81/144
f 45/53/132 44/52/131 40/48/145 39/47/146
f 47/55/128 46/54/127 34/42/147 37/45/148
f 79/87/124 47/55/123 37/45/149 78/86/150
f 49/57/120 48/56/119 36/44/151 35/43/152
f 51/59/116 50/58/115 30/38/153 33/41/154
f 84/92/112 51/59/111 33/41/155 83/91/156
f 53/61/108 52/60/107 32/40/157 31/39/158
f 55/63/104 54/62/103 26/34/159 29/37/160
f 69/77/100 55/63/99 29/37/161 68/76/162
f 57/65/96 56/64/95 28/36/163 27/35/164
f 59/67/92 58/66/91 22/30/165 25/33/166
f 64/72/88 59/67/87 25/33/167 63/71/168
f 61/69/84 60/68/83 24/32/169 23/31/170
f 62/70/18 23/31/171 24/32/172 63/71/19
f 60/68/173 64/72/88 63/71/168 24/32/174
f 15/29/175 65/73/85 64/72/88 60/68/173
f 6/12/176 66/74/177 65/73/178 15/29/179
f 67/75/2 27/35/180 28/36/181 68/76/3
f 56/64/182 69/77/100 68/76/162 28/36/183
f 14/20/184 70/78/97 69/77/100 56/64/182
f 7/8/185 71/79/45 70/78/48 14/20/186
f 72/80/14 39/47/187 40/48/188 73/81/15
f 44/52/189 74/82/136 73/81/144 40/48/190
f 21/27/191 75/83/133 74/82/136 44/52/189
f 10/11/192 76/84/193 75/83/194 21/27/195
f 77/85/10 35/43/196 36/44/197 78/86/11
f 48/56/198 79/87/124 78/86/150 36/44/199
f 19/25/200 80/88/121 79/87/124 48/56/198
f 9/10/201 81/89/202 80/88/203 19/25/204
f 82/90/6 31/39/205 32/40/206 83/91/7
f 52/60/207 84/92/112 83/91/156 32/40/208
f 17/23/209 85/93/109 84/92/112 52/60/207
f 8/9/210 86/94/53 85/93/56 17/23/211
