# This file uses centimeters as units for non-parametric coordinates.

mtllib model_PropSandDollar.mtl
g default
v 0.202057 -0.083043 -0.178293
v 0.107127 -0.083043 -0.247263
v -0.110561 -0.089210 -0.244768
v -0.198623 -0.089210 -0.180787
v -0.265502 -0.089122 0.033979
v -0.234768 -0.089122 0.128569
v -0.046156 -0.086057 0.263008
v 0.046156 -0.086057 0.263008
v 0.235136 -0.085069 0.127436
v 0.265134 -0.085069 0.035112
v 0.392604 -0.072072 -0.333125
v 0.195499 -0.072072 -0.476330
v -0.190647 -0.071425 -0.479855
v -0.397456 -0.071425 -0.329600
v -0.513057 -0.072418 0.039883
v -0.438514 -0.072418 0.269301
v -0.109175 -0.071596 0.500271
v 0.109175 -0.071596 0.500271
v 0.443227 -0.064339 0.254798
v 0.508344 -0.064339 0.054386
v 0.464998 -0.057622 -0.513270
v 0.344457 -0.057622 -0.600849
v -0.329836 -0.057709 -0.611472
v -0.479619 -0.057709 -0.502647
v -0.678824 -0.058830 0.139033
v -0.630902 -0.058830 0.286522
v -0.084287 -0.055616 0.688563
v 0.084287 -0.055616 0.688563
v 0.627427 -0.043905 0.297217
v 0.682299 -0.043905 0.128339
v 0.769421 -0.032440 -0.559017
v 0.293893 -0.032440 -0.904509
v -0.293893 -0.032440 -0.904509
v -0.769421 -0.032440 -0.559017
v -0.951057 -0.032440 0.000000
v -0.769421 -0.032440 0.559017
v -0.293893 -0.032440 0.904509
v 0.293893 -0.032440 0.904509
v 0.769421 -0.032440 0.559017
v 0.951057 -0.032440 0.000000
v 0.809017 0.000000 -0.587785
v 0.309017 0.000000 -0.951057
v -0.309017 0.000000 -0.951057
v -0.809017 0.000000 -0.587785
v -1.000000 0.000000 0.000000
v -0.809017 0.000000 0.587785
v -0.309017 0.000000 0.951057
v 0.309017 0.000000 0.951057
v 0.809017 0.000000 0.587785
v 1.000000 0.000000 0.000000
v 0.769421 0.032440 -0.559017
v 0.293893 0.032440 -0.904509
v -0.293893 0.032440 -0.904509
v -0.769421 0.032440 -0.559017
v -0.951057 0.032440 0.000000
v -0.769421 0.032440 0.559017
v -0.293893 0.032440 0.904509
v 0.293893 0.032440 0.904509
v 0.769421 0.032440 0.559017
v 0.951057 0.032440 0.000000
v 0.464998 0.057622 -0.513270
v 0.344457 0.057622 -0.600849
v -0.329836 0.057709 -0.611472
v -0.479619 0.057709 -0.502647
v -0.678824 0.058830 0.139033
v -0.630902 0.058830 0.286522
v -0.084287 0.055616 0.688563
v 0.084287 0.055616 0.688563
v 0.627427 0.043905 0.297217
v 0.682299 0.043905 0.128339
v 0.392604 0.072072 -0.333125
v 0.195499 0.072072 -0.476330
v -0.190647 0.071425 -0.479855
v -0.397456 0.071425 -0.329600
v -0.513057 0.072418 0.039883
v -0.438514 0.072418 0.269301
v -0.109175 0.071596 0.500271
v 0.109175 0.071596 0.500271
v 0.443227 0.064339 0.254798
v 0.508344 0.064339 0.054386
v 0.202057 0.083043 -0.178293
v 0.107127 0.083043 -0.247263
v -0.110561 0.089210 -0.244768
v -0.198623 0.089210 -0.180787
v -0.265502 0.089122 0.033979
v -0.234768 0.089122 0.128569
v -0.046156 0.086057 0.263008
v 0.046156 0.086057 0.263008
v 0.235136 0.085069 0.127436
v 0.265134 0.085069 0.035112
v 0.000000 -0.104977 0.000000
v 0.000000 0.104977 0.000000
vt 0.500000 0.100000
vt 0.100000 0.100000
vt 0.200000 0.100000
vt 0.300000 0.100000
vt 0.400000 0.100000
vt 0.500000 0.100000
vt 0.600000 0.100000
vt 0.700000 0.100000
vt 0.800000 0.100000
vt 0.900000 0.100000
vt 0.100000 0.200000
vt 0.200000 0.200000
vt 0.300000 0.200000
vt 0.400000 0.200000
vt 0.500000 0.200000
vt 0.600000 0.200000
vt 0.700000 0.200000
vt 0.800000 0.200000
vt 0.900000 0.200000
vt 1.000000 0.200000
vt 0.500000 0.300000
vt 0.100000 0.300000
vt 0.200000 0.300000
vt 0.300000 0.300000
vt 0.400000 0.300000
vt 0.500000 0.300000
vt 0.600000 0.300000
vt 0.700000 0.300000
vt 0.800000 0.300000
vt 0.900000 0.300000
vt 0.000000 0.400000
vt 0.100000 0.400000
vt 0.200000 0.400000
vt 0.300000 0.400000
vt 0.400000 0.400000
vt 0.500000 0.400000
vt 0.600000 0.400000
vt 0.700000 0.400000
vt 0.800000 0.400000
vt 0.900000 0.400000
vt 1.000000 0.400000
vt 0.000000 0.500000
vt 0.100000 0.500000
vt 0.200000 0.500000
vt 0.300000 0.500000
vt 0.400000 0.500000
vt 0.500000 0.500000
vt 0.600000 0.500000
vt 0.700000 0.500000
vt 0.800000 0.500000
vt 0.900000 0.500000
vt 1.000000 0.500000
vt 0.000000 0.600000
vt 0.100000 0.600000
vt 0.200000 0.600000
vt 0.300000 0.600000
vt 0.400000 0.600000
vt 0.500000 0.600000
vt 0.600000 0.600000
vt 0.700000 0.600000
vt 0.800000 0.600000
vt 0.900000 0.600000
vt 1.000000 0.600000
vt 0.500000 0.700000
vt 0.100000 0.700000
vt 0.200000 0.700000
vt 0.300000 0.700000
vt 0.400000 0.700000
vt 0.500000 0.700000
vt 0.600000 0.700000
vt 0.700000 0.700000
vt 0.800000 0.700000
vt 0.900000 0.700000
vt 0.100000 0.800000
vt 0.200000 0.800000
vt 0.300000 0.800000
vt 0.400000 0.800000
vt 0.500000 0.800000
vt 0.600000 0.800000
vt 0.700000 0.800000
vt 0.800000 0.800000
vt 0.900000 0.800000
vt 1.000000 0.800000
vt 0.500000 0.900000
vt 0.100000 0.900000
vt 0.200000 0.900000
vt 0.300000 0.900000
vt 0.400000 0.900000
vt 0.500000 0.900000
vt 0.600000 0.900000
vt 0.700000 0.900000
vt 0.800000 0.900000
vt 0.900000 0.900000
vt 0.050000 0.000000
vt 0.150000 0.000000
vt 0.250000 0.000000
vt 0.350000 0.000000
vt 0.450000 0.000000
vt 0.550000 0.000000
vt 0.650000 0.000000
vt 0.750000 0.000000
vt 0.850000 0.000000
vt 0.950000 0.000000
vt 0.050000 1.000000
vt 0.150000 1.000000
vt 0.250000 1.000000
vt 0.350000 1.000000
vt 0.450000 1.000000
vt 0.550000 1.000000
vt 0.650000 1.000000
vt 0.750000 1.000000
vt 0.850000 1.000000
vt 0.950000 1.000000
vn 0.009228 -0.998054 -0.061666
vn 0.009228 -0.998054 -0.061666
vn 0.009228 -0.998054 -0.061666
vn 0.009228 -0.998054 -0.061666
vn -0.069599 -0.997303 -0.023284
vn -0.069599 -0.997303 -0.023284
vn -0.069599 -0.997303 -0.023284
vn -0.069599 -0.997303 -0.023284
vn -0.033745 -0.997720 0.058447
vn -0.033745 -0.997720 0.058447
vn -0.033745 -0.997720 0.058447
vn -0.033745 -0.997720 0.058447
vn 0.055663 -0.996943 0.054832
vn 0.055663 -0.996943 0.054832
vn 0.055663 -0.996943 0.054832
vn 0.055663 -0.996943 0.054832
vn 0.069408 -0.997526 -0.011179
vn 0.069408 -0.997526 -0.011179
vn 0.069408 -0.997526 -0.011179
vn 0.069408 -0.997526 -0.011179
vn 0.000932 -0.994011 -0.109273
vn 0.000932 -0.994011 -0.109273
vn 0.000932 -0.994011 -0.109273
vn 0.000932 -0.994011 -0.109273
vn -0.099655 -0.994471 -0.033104
vn -0.099655 -0.994471 -0.033104
vn -0.099655 -0.994471 -0.033104
vn -0.099655 -0.994471 -0.033104
vn -0.062144 -0.993787 0.092331
vn -0.062144 -0.993787 0.092331
vn -0.062144 -0.993787 0.092331
vn -0.062144 -0.993787 0.092331
vn 0.089950 -0.991465 0.094371
vn 0.089950 -0.991465 0.094371
vn 0.089950 -0.991465 0.094371
vn 0.089950 -0.991465 0.094371
vn 0.130984 -0.991146 -0.021729
vn 0.130984 -0.991146 -0.021729
vn 0.130984 -0.991146 -0.021729
vn 0.130984 -0.991146 -0.021729
vn 0.068083 -0.993269 -0.093708
vn 0.068083 -0.993269 -0.093708
vn 0.068083 -0.993269 -0.093708
vn 0.068083 -0.993269 -0.093708
vn 0.000778 -0.996443 -0.084270
vn 0.000778 -0.996443 -0.084270
vn 0.000778 -0.996443 -0.084270
vn 0.000778 -0.996443 -0.084270
vn -0.068314 -0.993223 -0.094026
vn -0.068314 -0.993223 -0.094026
vn -0.068314 -0.993223 -0.094026
vn -0.068314 -0.993223 -0.094026
vn -0.082183 -0.996252 -0.026997
vn -0.082183 -0.996252 -0.026997
vn -0.082183 -0.996252 -0.026997
vn -0.082183 -0.996252 -0.026997
vn -0.115367 -0.992615 0.037485
vn -0.115367 -0.992616 0.037485
vn -0.115367 -0.992615 0.037485
vn -0.115367 -0.992615 0.037485
vn -0.046560 -0.996602 0.067949
vn -0.046560 -0.996602 0.067949
vn -0.046560 -0.996602 0.067949
vn -0.046560 -0.996602 0.067949
vn 0.000000 -0.994290 0.106712
vn 0.000000 -0.994290 0.106712
vn 0.000000 -0.994290 0.106712
vn 0.000000 -0.994290 0.106712
vn 0.041658 -0.998260 0.041725
vn 0.041658 -0.998260 0.041725
vn 0.041658 -0.998260 0.041725
vn 0.041658 -0.998260 0.041725
vn 0.050423 -0.998594 0.016383
vn 0.050423 -0.998594 0.016383
vn 0.050423 -0.998594 0.016383
vn 0.050423 -0.998594 0.016383
vn 0.061111 -0.998091 -0.008902
vn 0.061111 -0.998091 -0.008902
vn 0.061111 -0.998091 -0.008902
vn 0.061111 -0.998091 -0.008902
vn 0.336072 -0.820421 -0.462564
vn 0.336072 -0.820421 -0.462564
vn 0.336072 -0.820421 -0.462564
vn 0.336072 -0.820421 -0.462564
vn -0.000000 -0.820421 -0.571760
vn -0.000000 -0.820421 -0.571760
vn -0.000000 -0.820421 -0.571760
vn -0.000000 -0.820421 -0.571760
vn -0.336072 -0.820421 -0.462564
vn -0.336072 -0.820421 -0.462564
vn -0.336072 -0.820421 -0.462563
vn -0.336072 -0.820421 -0.462563
vn -0.543776 -0.820421 -0.176683
vn -0.543776 -0.820421 -0.176683
vn -0.543776 -0.820421 -0.176683
vn -0.543776 -0.820421 -0.176683
vn -0.543776 -0.820421 0.176684
vn -0.543776 -0.820421 0.176684
vn -0.543776 -0.820421 0.176684
vn -0.543776 -0.820421 0.176684
vn -0.336072 -0.820421 0.462564
vn -0.336072 -0.820421 0.462564
vn -0.336072 -0.820421 0.462564
vn -0.336072 -0.820421 0.462564
vn 0.000000 -0.820421 0.571760
vn 0.000000 -0.820421 0.571760
vn 0.000000 -0.820421 0.571760
vn 0.000000 -0.820421 0.571760
vn 0.336072 -0.820421 0.462564
vn 0.336072 -0.820421 0.462564
vn 0.336072 -0.820421 0.462564
vn 0.336072 -0.820421 0.462564
vn 0.543776 -0.820421 0.176684
vn 0.543776 -0.820421 0.176684
vn 0.543776 -0.820421 0.176684
vn 0.543776 -0.820421 0.176684
vn 0.543777 -0.820420 -0.176684
vn 0.543777 -0.820420 -0.176684
vn 0.543777 -0.820420 -0.176684
vn 0.543777 -0.820420 -0.176684
vn 0.336072 0.820421 -0.462564
vn 0.336072 0.820421 -0.462564
vn 0.336072 0.820421 -0.462564
vn 0.336072 0.820421 -0.462564
vn -0.000000 0.820421 -0.571760
vn -0.000000 0.820421 -0.571760
vn -0.000000 0.820421 -0.571760
vn -0.000000 0.820421 -0.571760
vn -0.336072 0.820421 -0.462563
vn -0.336072 0.820421 -0.462563
vn -0.336072 0.820421 -0.462564
vn -0.336072 0.820421 -0.462564
vn -0.543776 0.820421 -0.176683
vn -0.543776 0.820421 -0.176683
vn -0.543776 0.820421 -0.176683
vn -0.543776 0.820421 -0.176683
vn -0.543776 0.820421 0.176683
vn -0.543776 0.820421 0.176683
vn -0.543776 0.820421 0.176683
vn -0.543776 0.820421 0.176683
vn -0.336072 0.820421 0.462564
vn -0.336072 0.820421 0.462564
vn -0.336072 0.820421 0.462564
vn -0.336072 0.820421 0.462564
vn 0.000000 0.820421 0.571760
vn 0.000000 0.820421 0.571760
vn 0.000000 0.820421 0.571760
vn 0.000000 0.820421 0.571760
vn 0.336072 0.820421 0.462564
vn 0.336072 0.820421 0.462564
vn 0.336072 0.820421 0.462564
vn 0.336072 0.820421 0.462564
vn 0.543776 0.820421 0.176684
vn 0.543776 0.820421 0.176684
vn 0.543776 0.820421 0.176684
vn 0.543776 0.820421 0.176684
vn 0.543777 0.820421 -0.176684
vn 0.543777 0.820421 -0.176684
vn 0.543777 0.820421 -0.176684
vn 0.543777 0.820421 -0.176684
vn 0.068083 0.993269 -0.093708
vn 0.068083 0.993269 -0.093708
vn 0.068083 0.993269 -0.093708
vn 0.068083 0.993269 -0.093708
vn 0.000778 0.996443 -0.084270
vn 0.000778 0.996443 -0.084270
vn 0.000778 0.996443 -0.084270
vn 0.000778 0.996443 -0.084270
vn -0.068314 0.993223 -0.094026
vn -0.068314 0.993223 -0.094026
vn -0.068314 0.993223 -0.094026
vn -0.068314 0.993223 -0.094026
vn -0.082183 0.996252 -0.026997
vn -0.082183 0.996252 -0.026997
vn -0.082183 0.996252 -0.026997
vn -0.082183 0.996252 -0.026997
vn -0.115367 0.992615 0.037485
vn -0.115367 0.992615 0.037485
vn -0.115367 0.992616 0.037485
vn -0.115367 0.992616 0.037485
vn -0.046560 0.996602 0.067949
vn -0.046560 0.996602 0.067949
vn -0.046560 0.996602 0.067949
vn -0.046560 0.996602 0.067949
vn 0.000000 0.994290 0.106712
vn 0.000000 0.994290 0.106712
vn 0.000000 0.994290 0.106712
vn 0.000000 0.994290 0.106712
vn 0.041658 0.998260 0.041725
vn 0.041658 0.998260 0.041725
vn 0.041658 0.998260 0.041725
vn 0.041658 0.998260 0.041725
vn 0.050423 0.998594 0.016383
vn 0.050423 0.998594 0.016383
vn 0.050423 0.998594 0.016383
vn 0.050423 0.998594 0.016383
vn 0.061111 0.998091 -0.008902
vn 0.061111 0.998091 -0.008902
vn 0.061111 0.998091 -0.008902
vn 0.061111 0.998091 -0.008902
vn 0.000932 0.994011 -0.109273
vn 0.000932 0.994011 -0.109273
vn 0.000932 0.994011 -0.109273
vn 0.000932 0.994011 -0.109273
vn -0.099655 0.994471 -0.033104
vn -0.099655 0.994471 -0.033104
vn -0.099655 0.994471 -0.033104
vn -0.099655 0.994471 -0.033104
vn -0.062144 0.993787 0.092331
vn -0.062144 0.993787 0.092331
vn -0.062144 0.993787 0.092331
vn -0.062144 0.993787 0.092331
vn 0.089950 0.991465 0.094371
vn 0.089950 0.991465 0.094371
vn 0.089950 0.991465 0.094371
vn 0.089950 0.991465 0.094371
vn 0.130984 0.991146 -0.021729
vn 0.130984 0.991146 -0.021729
vn 0.130984 0.991146 -0.021729
vn 0.130984 0.991146 -0.021729
vn 0.009228 0.998054 -0.061666
vn 0.009228 0.998054 -0.061666
vn 0.009228 0.998054 -0.061666
vn 0.009228 0.998054 -0.061666
vn -0.069599 0.997303 -0.023284
vn -0.069599 0.997303 -0.023284
vn -0.069599 0.997303 -0.023284
vn -0.069599 0.997303 -0.023284
vn -0.033745 0.997720 0.058447
vn -0.033745 0.997720 0.058447
vn -0.033745 0.997720 0.058447
vn -0.033745 0.997720 0.058447
vn 0.055663 0.996943 0.054832
vn 0.055663 0.996943 0.054832
vn 0.055663 0.996943 0.054832
vn 0.055663 0.996943 0.054832
vn 0.069408 0.997526 -0.011179
vn 0.069408 0.997526 -0.011179
vn 0.069408 0.997526 -0.011179
vn 0.069408 0.997526 -0.011179
vn 0.048851 -0.996540 -0.067238
vn 0.048851 -0.996540 -0.067238
vn 0.048851 -0.996540 -0.067238
vn 0.027358 -0.996689 -0.076563
vn 0.027358 -0.996689 -0.076563
vn 0.027358 -0.996689 -0.076563
vn -0.035176 -0.998208 -0.048415
vn -0.035176 -0.998208 -0.048415
vn -0.035176 -0.998208 -0.048415
vn -0.062012 -0.997896 -0.018904
vn -0.062012 -0.997896 -0.018904
vn -0.062012 -0.997896 -0.018904
vn -0.057230 -0.998188 0.018595
vn -0.057230 -0.998188 0.018595
vn -0.057230 -0.998188 0.018595
vn -0.031048 -0.997317 0.066296
vn -0.031048 -0.997317 0.066296
vn -0.031048 -0.997317 0.066296
vn 0.000000 -0.997423 0.071752
vn 0.000000 -0.997423 0.071752
vn 0.000000 -0.997423 0.071752
vn 0.050319 -0.996752 0.062873
vn 0.050319 -0.996752 0.062873
vn 0.050319 -0.996752 0.062873
vn 0.071786 -0.997147 0.023325
vn 0.071786 -0.997147 0.023325
vn 0.071786 -0.997147 0.023325
vn 0.079164 -0.996320 -0.032857
vn 0.079164 -0.996320 -0.032857
vn 0.079164 -0.996320 -0.032857
vn 0.048851 0.996540 -0.067238
vn 0.048851 0.996540 -0.067238
vn 0.048851 0.996540 -0.067238
vn 0.027358 0.996689 -0.076563
vn 0.027358 0.996689 -0.076563
vn 0.027358 0.996689 -0.076563
vn -0.035176 0.998208 -0.048415
vn -0.035176 0.998208 -0.048415
vn -0.035176 0.998208 -0.048415
vn -0.062012 0.997896 -0.018904
vn -0.062012 0.997896 -0.018904
vn -0.062012 0.997896 -0.018904
vn -0.057230 0.998188 0.018595
vn -0.057230 0.998188 0.018595
vn -0.057230 0.998188 0.018595
vn -0.031048 0.997317 0.066296
vn -0.031048 0.997317 0.066296
vn -0.031048 0.997317 0.066296
vn 0.000000 0.997423 0.071752
vn 0.000000 0.997423 0.071752
vn 0.000000 0.997423 0.071752
vn 0.050319 0.996752 0.062873
vn 0.050319 0.996752 0.062873
vn 0.050319 0.996752 0.062873
vn 0.071786 0.997147 0.023325
vn 0.071786 0.997147 0.023325
vn 0.071786 0.997147 0.023325
vn 0.079164 0.996320 -0.032857
vn 0.079164 0.996320 -0.032857
vn 0.079164 0.996320 -0.032857
vn -0.568329 0.000000 -0.822802
vn -0.568329 0.000000 -0.822802
vn -0.568329 0.000000 -0.822802
vn -0.568329 0.000000 -0.822802
vn -0.089158 0.000000 -0.996018
vn -0.089158 0.000000 -0.996018
vn -0.089158 0.000000 -0.996018
vn -0.089158 0.000000 -0.996018
vn 0.951057 0.000000 -0.309016
vn 0.951057 0.000000 -0.309016
vn 0.951057 0.000000 -0.309016
vn 0.951057 0.000000 -0.309016
vn 0.513314 0.000000 0.858201
vn 0.513314 0.000000 0.858201
vn 0.513314 0.000000 0.858201
vn 0.513314 0.000000 0.858201
vn 0.023843 0.000000 0.999716
vn 0.023843 0.000000 0.999716
vn 0.023843 0.000000 0.999716
vn 0.023843 0.000000 0.999716
vn -0.951057 0.000000 0.309017
vn -0.951057 0.000000 0.309017
vn -0.951057 0.000000 0.309017
vn -0.951057 0.000000 0.309017
vn -0.587786 0.000000 -0.809017
vn -0.587786 0.000000 -0.809017
vn -0.587786 0.000000 -0.809017
vn -0.587786 0.000000 -0.809017
vn -0.946580 0.000000 0.322468
vn -0.946580 0.000000 0.322468
vn -0.946580 0.000000 0.322468
vn -0.946580 0.000000 0.322468
vn -0.687066 0.000000 0.726595
vn -0.687066 0.000000 0.726595
vn -0.687066 0.000000 0.726595
vn -0.687066 0.000000 0.726595
vn 0.587786 0.000000 0.809017
vn 0.587786 0.000000 0.809017
vn 0.587786 0.000000 0.809017
vn 0.587786 0.000000 0.809017
vn 0.903347 0.000000 -0.428910
vn 0.903347 0.000000 -0.428910
vn 0.903347 0.000000 -0.428910
vn 0.903347 0.000000 -0.428910
vn 0.599195 0.000000 -0.800603
vn 0.599195 0.000000 -0.800603
vn 0.599195 0.000000 -0.800603
vn 0.599195 0.000000 -0.800603
vn 0.587785 0.000000 -0.809017
vn 0.587785 0.000000 -0.809017
vn 0.587785 0.000000 -0.809017
vn 0.587785 0.000000 -0.809017
vn 0.932977 0.000000 0.359935
vn 0.932977 0.000000 0.359935
vn 0.932977 0.000000 0.359935
vn 0.932977 0.000000 0.359935
vn -0.630625 0.000000 -0.776088
vn -0.630625 0.000000 -0.776088
vn -0.630625 0.000000 -0.776088
vn -0.630625 0.000000 -0.776088
vn -0.927879 0.000000 -0.372883
vn -0.927879 0.000000 -0.372883
vn -0.927879 0.000000 -0.372883
vn -0.927879 0.000000 -0.372883
vn 0.641362 0.000000 0.767238
vn 0.641362 0.000000 0.767238
vn 0.641362 0.000000 0.767238
vn 0.641362 0.000000 0.767238
vn -0.587786 0.000000 0.809017
vn -0.587786 0.000000 0.809017
vn -0.587786 0.000000 0.809017
vn -0.587786 0.000000 0.809017
vn -0.079003 0.000000 0.996874
vn -0.079003 0.000000 0.996874
vn -0.079003 0.000000 0.996874
vn -0.079003 0.000000 0.996874
vn -0.391237 0.000000 0.920290
vn -0.391237 0.000000 0.920290
vn -0.391237 0.000000 0.920290
vn -0.391237 0.000000 0.920290
vn -0.951057 0.000000 -0.309017
vn -0.951057 0.000000 -0.309017
vn -0.951057 0.000000 -0.309017
vn -0.951057 0.000000 -0.309017
vn 0.224415 0.000000 -0.974494
vn 0.224415 0.000000 -0.974494
vn 0.224415 0.000000 -0.974494
vn 0.224415 0.000000 -0.974494
vn 0.522034 0.000000 -0.852925
vn 0.522034 0.000000 -0.852925
vn 0.522034 0.000000 -0.852925
vn 0.522034 0.000000 -0.852925
vn 0.951057 0.000000 0.309017
vn 0.951057 0.000000 0.309017
vn 0.951057 0.000000 0.309017
vn 0.951057 0.000000 0.309017
vn -0.966489 0.000000 0.256708
vn -0.966489 0.000000 0.256708
vn -0.966489 0.000000 0.256708
vn -0.966489 0.000000 0.256708
vn -0.991377 0.000000 -0.131038
vn -0.991377 0.000000 -0.131038
vn -0.991377 0.000000 -0.131038
vn -0.991377 0.000000 -0.131038
vn -0.000000 0.000000 -1.000000
vn -0.000000 0.000000 -1.000000
vn -0.000000 0.000000 -1.000000
vn -0.000000 0.000000 -1.000000
vn 0.991377 0.000000 -0.131039
vn 0.991377 0.000000 -0.131039
vn 0.991377 0.000000 -0.131039
vn 0.991377 0.000000 -0.131039
vn 0.966489 0.000000 0.256708
vn 0.966489 0.000000 0.256708
vn 0.966489 0.000000 0.256708
vn 0.966489 0.000000 0.256708
vn 0.000000 0.000000 1.000000
vn 0.000000 0.000000 1.000000
vn 0.000000 0.000000 1.000000
vn 0.000000 0.000000 1.000000
g sanddollar
usemtl initialShadingGroup
f 2/2/1 3/3/2 13/12/3 12/11/4
f 4/4/5 5/5/6 15/14/7 14/13/8
f 6/6/9 7/7/10 17/16/11 16/15/12
f 8/8/13 9/9/14 19/18/15 18/17/16
f 10/10/17 1/1/18 11/20/19 20/19/20
f 12/11/21 13/12/22 23/23/23 22/22/24
f 14/13/25 15/14/26 25/25/27 24/24/28
f 16/15/29 17/16/30 27/27/31 26/26/32
f 18/17/33 19/18/34 29/29/35 28/28/36
f 20/19/37 11/20/38 21/21/39 30/30/40
f 21/21/41 22/22/42 32/32/43 31/31/44
f 22/22/45 23/23/46 33/33/47 32/32/48
f 23/23/49 24/24/50 34/34/51 33/33/52
f 24/24/53 25/25/54 35/35/55 34/34/56
f 25/25/57 26/26/58 36/36/59 35/35/60
f 26/26/61 27/27/62 37/37/63 36/36/64
f 27/27/65 28/28/66 38/38/67 37/37/68
f 28/28/69 29/29/70 39/39/71 38/38/72
f 29/29/73 30/30/74 40/40/75 39/39/76
f 30/30/77 21/21/78 31/41/79 40/40/80
f 31/31/81 32/32/82 42/43/83 41/42/84
f 32/32/85 33/33/86 43/44/87 42/43/88
f 33/33/89 34/34/90 44/45/91 43/44/92
f 34/34/93 35/35/94 45/46/95 44/45/96
f 35/35/97 36/36/98 46/47/99 45/46/100
f 36/36/101 37/37/102 47/48/103 46/47/104
f 37/37/105 38/38/106 48/49/107 47/48/108
f 38/38/109 39/39/110 49/50/111 48/49/112
f 39/39/113 40/40/114 50/51/115 49/50/116
f 40/40/117 31/41/118 41/52/119 50/51/120
f 41/42/121 42/43/122 52/54/123 51/53/124
f 42/43/125 43/44/126 53/55/127 52/54/128
f 43/44/129 44/45/130 54/56/131 53/55/132
f 44/45/133 45/46/134 55/57/135 54/56/136
f 45/46/137 46/47/138 56/58/139 55/57/140
f 46/47/141 47/48/142 57/59/143 56/58/144
f 47/48/145 48/49/146 58/60/147 57/59/148
f 48/49/149 49/50/150 59/61/151 58/60/152
f 49/50/153 50/51/154 60/62/155 59/61/156
f 50/51/157 41/52/158 51/63/159 60/62/160
f 51/53/161 52/54/162 62/65/163 61/64/164
f 52/54/165 53/55/166 63/66/167 62/65/168
f 53/55/169 54/56/170 64/67/171 63/66/172
f 54/56/173 55/57/174 65/68/175 64/67/176
f 55/57/177 56/58/178 66/69/179 65/68/180
f 56/58/181 57/59/182 67/70/183 66/69/184
f 57/59/185 58/60/186 68/71/187 67/70/188
f 58/60/189 59/61/190 69/72/191 68/71/192
f 59/61/193 60/62/194 70/73/195 69/72/196
f 60/62/197 51/63/198 61/64/199 70/73/200
f 62/65/201 63/66/202 73/75/203 72/74/204
f 64/67/205 65/68/206 75/77/207 74/76/208
f 66/69/209 67/70/210 77/79/211 76/78/212
f 68/71/213 69/72/214 79/81/215 78/80/216
f 70/73/217 61/64/218 71/83/219 80/82/220
f 72/74/221 73/75/222 83/86/223 82/85/224
f 74/76/225 75/77/226 85/88/227 84/87/228
f 76/78/229 77/79/230 87/90/231 86/89/232
f 78/80/233 79/81/234 89/92/235 88/91/236
f 80/82/237 71/83/238 81/84/239 90/93/240
f 2/2/241 1/1/242 91/94/243
f 3/3/244 2/2/245 91/95/246
f 4/4/247 3/3/248 91/96/249
f 5/5/250 4/4/251 91/97/252
f 6/6/253 5/5/254 91/98/255
f 7/7/256 6/6/257 91/99/258
f 8/8/259 7/7/260 91/100/261
f 9/9/262 8/8/263 91/101/264
f 10/10/265 9/9/266 91/102/267
f 1/1/268 10/10/269 91/103/270
f 81/84/271 82/85/272 92/104/273
f 82/85/274 83/86/275 92/105/276
f 83/86/277 84/87/278 92/106/279
f 84/87/280 85/88/281 92/107/282
f 85/88/283 86/89/284 92/108/285
f 86/89/286 87/90/287 92/109/288
f 87/90/289 88/91/290 92/110/291
f 88/91/292 89/92/293 92/111/294
f 89/92/295 90/93/296 92/112/297
f 90/93/298 81/84/299 92/113/300
f 6/6/301 16/15/302 76/78/303 86/89/304
f 16/15/305 26/26/306 66/69/307 76/78/308
f 26/26/309 25/25/310 65/68/311 66/69/312
f 25/25/313 15/14/314 75/77/315 65/68/316
f 15/14/317 5/5/318 85/88/319 75/77/320
f 5/5/321 6/6/322 86/89/323 85/88/324
f 3/3/325 4/4/326 84/87/327 83/86/328
f 13/12/329 3/3/330 83/86/331 73/75/332
f 23/23/333 13/12/334 73/75/335 63/66/336
f 24/24/337 23/23/338 63/66/339 64/67/340
f 14/13/341 24/24/342 64/67/343 74/76/344
f 4/4/345 14/13/346 74/76/347 84/87/348
f 1/1/349 2/2/350 82/85/351 81/84/352
f 2/2/353 12/11/354 72/74/355 82/85/356
f 11/20/357 1/1/358 81/84/359 71/83/360
f 21/21/361 11/20/362 71/83/363 61/64/364
f 12/11/365 22/22/366 62/65/367 72/74/368
f 22/22/369 21/21/370 61/64/371 62/65/372
f 10/10/373 20/19/374 80/82/375 90/93/376
f 20/19/377 30/30/378 70/73/379 80/82/380
f 30/30/381 29/29/382 69/72/383 70/73/384
f 29/29/385 19/18/386 79/81/387 69/72/388
f 19/18/389 9/9/390 89/92/391 79/81/392
f 9/9/393 10/10/394 90/93/395 89/92/396
f 8/8/397 18/17/398 78/80/399 88/91/400
f 18/17/401 28/28/402 68/71/403 78/80/404
f 28/28/405 27/27/406 67/70/407 68/71/408
f 27/27/409 17/16/410 77/79/411 67/70/412
f 17/16/413 7/7/414 87/90/415 77/79/416
f 7/7/417 8/8/418 88/91/419 87/90/420
